<svg xmlns="http://www.w3.org/2000/svg" viewBox="0 0 24 24" fill="#0071c2">
  <path d="M13.5,7h-3C9.67,7,9,7.67,9,8.5v3c0,0.83,0.67,1.5,1.5,1.5h3c0.83,0,1.5-0.67,1.5-1.5v-3C15,7.67,14.33,7,13.5,7z M7.5,2H4C2.9,2,2,2.9,2,4v3.5C2,8.33,2.67,9,3.5,9h3C7.33,9,8,8.33,8,7.5V4C8,2.9,7.1,2,5.5,2z M7.5,15H4c-1.1,0-2,0.9-2,2v3.5C2,21.33,2.67,22,3.5,22h3c0.83,0,1.5-0.67,1.5-1.5V17C8,15.9,7.1,15,5.5,15z M19.5,15h-3c-1.1,0-2,0.9-2,2v3.5c0,0.83,0.67,1.5,1.5,1.5h3c0.83,0,1.5-0.67,1.5-1.5V17C22,15.9,21.1,15,19.5,15z M19.5,2h-3C15.67,2,15,2.67,15,3.5v3c0,0.83,0.67,1.5,1.5,1.5h3C20.33,8,21,7.33,21,6.5v-3C21,2.67,20.33,2,19.5,2z"/>
</svg>